<svg width="120" height="120" viewBox="0 0 120 120" fill="none" xmlns="http://www.w3.org/2000/svg">
<g clip-path="url(#clip0_69_817)">
<path fill-rule="evenodd" clip-rule="evenodd" d="M48.3634 65.7941L46.8777 72.7016H43.4604L49.1063 47.668H53.1543L58.4658 72.7016H55.0115L53.5629 65.7941H48.3634ZM53.1543 63.0083L52.0028 57.0276C51.6686 55.319 51.3343 53.0916 51.0749 51.3081H50.9257C50.6663 53.1281 50.2936 55.4304 49.9606 57.0276L48.772 63.0083H53.1543ZM71.5094 47V68.0593C71.5094 69.4342 71.5837 71.44 71.6574 72.7022H68.6493L68.4265 70.5114H68.3151C67.7208 71.7736 66.3464 73 64.527 73C61.1841 73 59.1412 69.3593 59.1412 63.7518C59.1412 57.3631 61.8521 54.3545 64.7128 54.3545C66.1607 54.3545 67.3122 55.0237 67.9436 56.3974H68.0179V47H71.5094ZM68.0173 61.5226C68.0173 61.1889 68.0173 60.7803 67.9801 60.4077C67.7944 58.7739 66.8658 57.3625 65.6036 57.3625C63.4115 57.3625 62.6692 60.4077 62.6692 63.7512C62.6692 67.4656 63.635 70.065 65.4921 70.065C66.2722 70.065 67.3116 69.6564 67.9059 67.5027C67.9801 67.2056 68.0173 66.7592 68.0173 66.3519V61.5226ZM79.8258 72.9994C76.2235 72.9994 73.6229 69.9165 73.6229 63.7147C73.6229 57.1396 76.7052 54.3538 80.0109 54.3538C83.5767 54.3538 86.139 57.5482 86.139 63.6398C86.139 70.8085 82.6104 72.9994 79.8624 72.9994H79.8258ZM79.9367 70.2514C82.0904 70.2514 82.5738 66.4256 82.5738 63.6775C82.5738 60.9654 82.091 57.1031 79.863 57.1031C77.5595 57.1031 77.1144 60.9654 77.1144 63.6775C77.1144 66.6856 77.6344 70.2514 79.9001 70.2514H79.9367ZM88.2438 47H91.7347V56.6939H91.809C92.7376 55.0602 94.0004 54.3538 95.5976 54.3538C98.6799 54.3538 100.612 57.8454 100.612 63.3798C100.612 69.8422 97.9748 72.9994 95.0033 72.9994C93.2204 72.9994 92.2175 72.033 91.4369 70.4358H91.2896L91.1032 72.7016H88.0952C88.1695 71.4765 88.2438 69.4336 88.2438 68.0586V47ZM91.7347 66.3129C91.7347 66.7227 91.7718 67.1313 91.8833 67.4278C92.4398 69.6199 93.5176 70.065 94.2227 70.065C96.3027 70.065 97.0827 67.317 97.0827 63.6026C97.0827 60.1483 96.2662 57.3625 94.1855 57.3625C93.0341 57.3625 92.1055 58.7368 91.8455 60.0368C91.7712 60.4083 91.7341 60.8918 91.7341 61.2626V66.3129H91.7347ZM105.764 64.382C105.801 69.025 107.806 70.1758 109.923 70.1758C111.186 70.1758 112.263 69.8793 113.043 69.5073L113.563 72.033C112.486 72.5902 110.852 72.888 109.255 72.888C104.724 72.888 102.347 69.4707 102.347 63.8992C102.347 57.9933 105.057 54.3532 108.809 54.3532C112.56 54.3532 114.306 57.9562 114.306 62.4883C114.306 63.3792 114.268 63.9369 114.232 64.4192L105.764 64.382ZM111 61.894C111.038 58.6997 109.923 56.9917 108.55 56.9917C106.729 56.9917 105.912 59.6289 105.801 61.894H111Z" fill="#242424"/>
<path fill-rule="evenodd" clip-rule="evenodd" d="M23.7838 47.7356H34.2131V72.7026L23.7838 47.7356ZM16.4368 47.7356H6V72.7026L16.4368 47.7356ZM20.1109 56.9368L26.7559 72.7026H22.4014L20.4142 67.6813H15.5503L20.1109 56.9368Z" fill="#FF0000"/>
<path fill-rule="evenodd" clip-rule="evenodd" d="M114.01 54.3083C114.114 54.3088 114.218 54.33 114.314 54.3707C114.411 54.4114 114.498 54.4708 114.571 54.5454C114.645 54.6201 114.702 54.7085 114.741 54.8056C114.78 54.9028 114.8 55.0066 114.798 55.1113C114.798 55.5644 114.449 55.9179 114.006 55.9179C113.567 55.9179 113.21 55.5651 113.21 55.1113C113.209 55.0062 113.229 54.9021 113.269 54.8049C113.309 54.7077 113.367 54.6192 113.441 54.5446C113.515 54.4701 113.603 54.4108 113.7 54.3702C113.797 54.3297 113.901 54.3086 114.006 54.3083H114.01ZM114.006 54.4328C113.653 54.4328 113.363 54.7367 113.363 55.1113C113.363 55.4932 113.653 55.7929 114.01 55.7929C114.366 55.7966 114.652 55.4932 114.652 55.115C114.652 54.7367 114.366 54.4328 114.01 54.4328H114.006ZM113.856 55.5793H113.714V54.6829C113.789 54.6723 113.861 54.6612 113.968 54.6612C114.103 54.6612 114.192 54.6903 114.246 54.7293C114.299 54.7683 114.328 54.829 114.328 54.915C114.328 55.0326 114.249 55.1045 114.153 55.1329V55.1397C114.231 55.154 114.285 55.2258 114.303 55.3577C114.324 55.497 114.345 55.5502 114.36 55.5793H114.21C114.189 55.5502 114.168 55.4685 114.15 55.3508C114.128 55.2363 114.071 55.1936 113.956 55.1936H113.857V55.5793H113.856ZM113.856 55.0828H113.96C114.077 55.0828 114.178 55.0401 114.178 54.9293C114.178 54.8506 114.121 54.772 113.96 54.772C113.914 54.772 113.881 54.7757 113.856 54.7794V55.0828ZM35.5882 47.7356C35.6928 47.7361 35.7963 47.7573 35.8927 47.798C35.9891 47.8387 36.0765 47.8981 36.1498 47.9727C36.2232 48.0474 36.281 48.1358 36.3199 48.2329C36.3589 48.33 36.3782 48.4339 36.3769 48.5385C36.3769 48.9917 36.0271 49.3452 35.5845 49.3452C35.1455 49.3452 34.7883 48.9923 34.7883 48.5385C34.7878 48.4335 34.8079 48.3294 34.8476 48.2322C34.8874 48.1349 34.9459 48.0465 35.0198 47.9719C35.0938 47.8973 35.1817 47.8381 35.2786 47.7975C35.3755 47.757 35.4794 47.7359 35.5845 47.7356H35.5882ZM35.5845 47.86C35.231 47.86 34.9419 48.164 34.9419 48.5385C34.9419 48.9205 35.231 49.2201 35.5882 49.2201C35.9447 49.2239 36.2308 48.9205 36.2308 48.5423C36.2308 48.164 35.9447 47.86 35.5882 47.86H35.5845ZM35.4346 49.0066H35.2916V48.1101C35.3755 48.0962 35.4604 48.0892 35.5455 48.0891C35.681 48.0891 35.7702 48.1169 35.8234 48.1566C35.8773 48.1956 35.9057 48.2569 35.9057 48.3423C35.9057 48.4599 35.8271 48.5317 35.7306 48.5602V48.567C35.8092 48.5813 35.863 48.6531 35.881 48.7855C35.902 48.9248 35.9237 48.9781 35.9379 49.0072H35.7881C35.7665 48.9781 35.7448 48.8964 35.7275 48.7787C35.7058 48.6642 35.6488 48.6215 35.5343 48.6215H35.4346V49.0066ZM35.4346 48.5101H35.538C35.6556 48.5101 35.7559 48.4673 35.7559 48.3565C35.7559 48.2779 35.699 48.1993 35.538 48.1993C35.4916 48.1993 35.4594 48.203 35.4346 48.2067V48.5101Z" fill="#242424"/>
</g>
<defs>
<clipPath id="clip0_69_817">
<rect width="108.799" height="26" fill="white" transform="translate(6 47)"/>
</clipPath>
</defs>
</svg>
