<svg width="983" height="411" viewBox="0 0 983 411" fill="none" xmlns="http://www.w3.org/2000/svg">
<path fill-rule="evenodd" clip-rule="evenodd" d="M982.198 3C982.198 1.34315 980.854 0 979.198 0H21.1977C19.5408 0 18.1977 1.34315 18.1977 3V32.5581C18.1977 33.4695 17.7834 34.3314 17.0717 34.9007L1.12591 47.6574C-0.375306 48.8584 -0.375304 51.1416 1.12592 52.3426L17.0717 65.0993C17.7834 65.6686 18.1977 66.5305 18.1977 67.4419V408C18.1977 409.657 19.5408 411 21.1976 411H979.198C980.854 411 982.198 409.657 982.198 408V3Z" fill="white"/>
<path fill-rule="evenodd" clip-rule="evenodd" d="M982.198 3C982.198 1.34315 980.854 0 979.198 0H21.1977C19.5408 0 18.1977 1.34315 18.1977 3V32.5581C18.1977 33.4695 17.7834 34.3314 17.0717 34.9007L1.12591 47.6574C-0.375306 48.8584 -0.375304 51.1416 1.12592 52.3426L17.0717 65.0993C17.7834 65.6686 18.1977 66.5305 18.1977 67.4419V408C18.1977 409.657 19.5408 411 21.1976 411H979.198C980.854 411 982.198 409.657 982.198 408V3Z" fill="#DFE3EB" fill-opacity="0.3"/>
</svg>
