<svg width="120" height="120" viewBox="0 0 120 120" fill="none" xmlns="http://www.w3.org/2000/svg">
<path d="M23.0744 44H23.9463C26.973 44.0658 29.9503 45.2831 32.0888 47.438C31.2992 48.244 30.4932 49.0171 29.72 49.8231C28.5192 48.7375 27.0717 47.8985 25.4925 47.6024C23.1567 47.109 20.6399 47.5531 18.6824 48.8855C16.544 50.2837 15.0964 52.6525 14.7839 55.1857C14.4384 57.686 15.1458 60.3179 16.7743 62.259C18.337 64.1507 20.7222 65.3351 23.1896 65.4173C25.4925 65.5489 27.8942 64.8416 29.572 63.2295C30.888 62.0945 31.4966 60.3673 31.694 58.6894C28.9634 58.6894 26.2327 58.7059 23.5021 58.6894V55.3008H35.0003C35.5925 58.9362 34.7372 63.0321 31.9736 65.6311C30.1313 67.4735 27.5816 68.5592 24.9826 68.773C22.4658 69.0198 19.8668 68.5427 17.6296 67.3254C14.9484 65.8943 12.8099 63.4763 11.7572 60.6305C10.7702 58.015 10.7537 55.0541 11.6749 52.4222C12.5138 50.0205 14.1259 47.8985 16.1985 46.4181C18.1889 44.9541 20.607 44.148 23.0744 44Z" fill="#3780FF"/>
<path d="M89.0371 44.855H92.5573V68.3449C91.3894 68.3449 90.205 68.3614 89.0371 68.3285C89.0536 60.5149 89.0371 52.685 89.0371 44.855Z" fill="#38B137"/>
<path d="M42.8304 52.9975C45.0017 52.5862 47.354 53.0468 49.147 54.3463C50.7755 55.4978 51.9106 57.3073 52.256 59.2812C52.7001 61.5677 52.1408 64.068 50.6604 65.8775C49.0648 67.9008 46.4493 68.9865 43.8996 68.822C41.5638 68.6904 39.2937 67.5224 37.9119 65.6143C36.3492 63.5087 35.9709 60.6136 36.8263 58.1462C37.6816 55.4978 40.0997 53.4745 42.8304 52.9975ZM43.3239 56.1229C42.4356 56.3532 41.6131 56.8631 41.0209 57.5869C39.4253 59.4951 39.524 62.604 41.2841 64.3806C42.2875 65.4004 43.8009 65.8775 45.1991 65.5978C46.4986 65.3676 47.6337 64.4957 48.2587 63.3443C49.3444 61.3868 49.0319 58.689 47.3705 57.1592C46.3012 56.1722 44.7385 55.761 43.3239 56.1229Z" fill="#FA3913"/>
<path d="M60.2668 52.9972C62.7507 52.5202 65.4649 53.2111 67.3237 54.9547C70.3504 57.6689 70.6794 62.7518 68.0968 65.8772C66.5341 67.8512 64.0009 68.9368 61.5005 68.8217C59.1154 68.7559 56.7631 67.5715 55.3484 65.614C53.7528 63.4591 53.4074 60.4982 54.3121 57.9814C55.2168 55.4153 57.5856 53.4578 60.2668 52.9972ZM60.7603 56.1226C59.872 56.3529 59.0496 56.8629 58.4574 57.5702C56.8782 59.4454 56.944 62.5051 58.6383 64.2981C59.6417 65.3673 61.2044 65.8937 62.652 65.5976C63.9351 65.3508 65.0865 64.4955 65.7116 63.344C66.7808 61.37 66.4683 58.6723 64.7904 57.1425C63.7212 56.1555 62.1585 55.7607 60.7603 56.1226Z" fill="#FCBD06"/>
<path d="M75.0553 53.9513C76.947 52.767 79.4637 52.438 81.5035 53.4578C82.145 53.7375 82.6714 54.2145 83.1813 54.6916C83.1978 54.2474 83.1813 53.7868 83.1978 53.3262C84.2999 53.3427 85.402 53.3262 86.5206 53.3427V67.8512C86.5041 70.039 85.9449 72.3584 84.3657 73.954C82.6385 75.7141 79.9901 76.2569 77.6049 75.8951C75.0553 75.5167 72.8346 73.6579 71.8476 71.3056C72.8346 70.8286 73.8709 70.4502 74.8908 70.0061C75.4665 71.355 76.6344 72.5064 78.0984 72.7696C79.5624 73.0328 81.2567 72.6709 82.2108 71.4537C83.2307 70.2035 83.2307 68.4928 83.1813 66.9629C82.4247 67.7032 81.5528 68.3612 80.5001 68.6079C78.2136 69.2494 75.6968 68.4599 73.9367 66.9136C72.1602 65.3673 71.1074 62.9821 71.2061 60.6134C71.2554 57.9321 72.7688 55.3495 75.0553 53.9513ZM78.4603 56.0569C77.4569 56.2214 76.5193 56.7807 75.8777 57.5538C74.3315 59.3961 74.3315 62.3406 75.8942 64.1501C76.7825 65.2193 78.2136 65.8115 79.5953 65.6634C80.8948 65.5318 82.0957 64.7093 82.7372 63.5743C83.8229 61.6497 83.6419 59.0342 82.1779 57.3564C81.2732 56.3201 79.8256 55.8101 78.4603 56.0569Z" fill="#3780FF"/>
<path d="M96.7851 54.7903C98.7591 52.9479 101.802 52.3228 104.335 53.2934C106.737 54.1981 108.267 56.4846 109.04 58.8369C105.471 60.3173 101.917 61.7813 98.3478 63.2618C98.8413 64.1994 99.598 65.0548 100.618 65.4002C102.049 65.9102 103.76 65.7292 104.961 64.7751C105.438 64.4133 105.816 63.9362 106.178 63.4756C107.083 64.0843 107.987 64.6764 108.892 65.2851C107.609 67.2097 105.454 68.5585 103.135 68.7724C100.569 69.0849 97.8379 68.098 96.1765 66.0911C93.4458 62.9328 93.709 57.636 96.7851 54.7903ZM98.5452 57.8334C97.9859 58.6395 97.7556 59.6264 97.7721 60.597C100.157 59.61 102.542 58.623 104.928 57.6196C104.533 56.6984 103.579 56.1391 102.608 55.9911C101.046 55.7114 99.4171 56.5504 98.5452 57.8334Z" fill="#FA3913"/>
</svg>
