<svg width="120" height="120" viewBox="0 0 120 120" fill="none" xmlns="http://www.w3.org/2000/svg">
<path fill-rule="evenodd" clip-rule="evenodd" d="M41.2845 63.9422L41.2625 63.6522H38.8264L38.84 63.9784C38.9898 67.6071 41.4541 70.0115 45.8362 70.0115C50.016 70.0115 52.8585 67.8552 52.8585 64.5911C52.8585 62.8265 52.2418 61.5773 51.0668 60.725C50.1624 60.0688 49.0823 59.6985 47.29 59.3131L46.896 59.2294L46.5055 59.148C43.2498 58.4715 42.2177 57.8819 42.2177 56.1298C42.2177 54.3171 43.7099 53.1629 46.2138 53.1629C48.6499 53.1629 50.189 54.6398 50.2608 56.9652L50.2704 57.2687H52.6889L52.6816 56.9488C52.5974 53.324 50.1483 50.8845 46.1895 50.8845C42.3093 50.8845 39.7472 53.2031 39.7472 56.2044C39.7472 57.9645 40.3632 59.1898 41.54 60.0083C42.4365 60.6323 43.4753 60.9635 45.3078 61.3309C45.4949 61.3686 45.6822 61.4055 45.8696 61.4417C47.6031 61.7819 48.3678 61.9922 49.0659 62.3952C49.9324 62.8954 50.3619 63.6098 50.3619 64.7165C50.3619 66.6383 48.7352 67.7331 45.8865 67.7331C43.1599 67.7331 41.4677 66.3755 41.2845 63.9422ZM57.9494 50.6002V50.2871H55.5455V69.7125H57.9494V66.0471L60.4805 63.5805L64.9999 69.5876L65.0938 69.7119H68.0843L67.7028 69.2095L62.1835 61.9334L67.2738 56.8634L67.8108 56.3276H64.5438L64.4517 56.4203L57.9494 62.974V50.6002ZM80.5807 63.819H80.8775L80.8961 63.5239C80.906 63.3647 80.9136 63.2053 80.9187 63.0458C80.921 62.9644 80.9221 62.8903 80.9221 62.8248C80.9221 58.875 78.2967 55.9653 74.417 55.9653C70.5447 55.9653 67.7859 59.0627 67.7859 62.9757C67.7859 67.0023 70.4198 70.0115 74.4425 70.0115C77.4839 70.0115 79.8341 68.213 80.6808 65.4852L80.8074 65.0777H78.2865L78.2119 65.2868C77.6806 66.7802 76.241 67.771 74.4673 67.771C72.1499 67.771 70.5334 66.1844 70.2423 63.819H80.5813H80.5807ZM70.1739 61.9425C70.5798 59.7867 72.1279 58.3562 74.2356 58.3562C76.4077 58.3562 77.9072 59.7398 78.2351 61.9425H70.1745H70.1739ZM88.6701 58.4313H88.9827V56.305H86.0532V52.678H83.6493V56.305H81.2205V58.4313H83.6493V65.9227C83.6493 68.3803 84.9255 69.7125 87.2678 69.7125C87.6765 69.7125 88.0291 69.6882 88.3248 69.6469C88.5079 69.6215 88.6339 69.5949 88.7035 69.5757L88.9329 69.5124V67.286L88.5531 67.368C88.4417 67.3905 88.3298 67.4101 88.2174 67.4268C87.9777 67.4631 87.7357 67.483 87.4933 67.4861C86.4669 67.4861 86.0532 67.0045 86.0532 65.7978V58.4313H88.6701ZM96.1264 70.0115C99.4279 70.0115 101.759 67.8948 102.344 64.8997L102.418 64.5238H100.012L99.9507 64.7578C99.4494 66.6688 98.0883 67.7704 96.1264 67.7704C93.6791 67.7704 91.9902 65.8148 91.9902 63.0011C91.9902 60.1654 93.6757 58.2058 96.1264 58.2058C98.0883 58.2058 99.4494 59.308 99.9507 61.219L100.012 61.453H102.418L102.344 61.0771C101.759 58.0815 99.4279 55.9653 96.1264 55.9653C92.2915 55.9653 89.5801 59.0847 89.5801 63.0011C89.5801 66.8955 92.2954 70.0115 96.1264 70.0115ZM106.906 50.5997V50.2871H104.507V69.7125H106.906V61.8543C106.906 59.5561 108.301 58.2075 110.417 58.2075C112.439 58.2075 113.454 59.3815 113.454 61.6039V69.7125H115.853V61.2523C115.853 58.1125 113.914 56.0263 110.718 56.0263C109.073 56.0263 107.751 56.6311 106.906 57.4982V50.6002V50.5997Z" fill="#242424"/>
<path fill-rule="evenodd" clip-rule="evenodd" d="M9.253 47.8461L17.33 47L25.4075 47.8461L31.661 56.1644L17.3305 72.701L3 56.1644L9.253 47.8461Z" fill="#FDB300"/>
<path fill-rule="evenodd" clip-rule="evenodd" d="M8.80478 56.2644L17.3305 72.7009L3 56.2644H8.80478Z" fill="#EA6C00"/>
<path fill-rule="evenodd" clip-rule="evenodd" d="M25.8579 56.2644L17.3316 72.7009L31.6621 56.2644H25.8579Z" fill="#EA6C00"/>
<path fill-rule="evenodd" clip-rule="evenodd" d="M8.6748 56.2644H25.6923L17.1836 72.7009L8.6748 56.2644Z" fill="#FDAD00"/>
<path fill-rule="evenodd" clip-rule="evenodd" d="M17.0344 47L9.11454 47.8552L8.6748 56.2645L17.0344 47Z" fill="#FDD231"/>
<path fill-rule="evenodd" clip-rule="evenodd" d="M17.3282 47L25.248 47.8552L25.6877 56.2645L17.3282 47Z" fill="#FDD231"/>
<path fill-rule="evenodd" clip-rule="evenodd" d="M31.6621 56.2645L25.3921 47.8965L25.8421 56.2645H31.6621Z" fill="#FDAD00"/>
<path fill-rule="evenodd" clip-rule="evenodd" d="M3 56.2643L9.26939 47.8962L8.81948 56.2643H3Z" fill="#FDAD00"/>
<path fill-rule="evenodd" clip-rule="evenodd" d="M17.1836 47L8.6748 56.2645H25.6923L17.1836 47Z" fill="#FEEEB7"/>
</svg>
