<svg width="120" height="120" viewBox="0 0 120 120" fill="none" xmlns="http://www.w3.org/2000/svg">
<path d="M20.6297 72.9761L12.9162 72.835C10.4187 72.7859 7.91503 72.8841 5.4666 72.3748C1.7418 71.6138 1.47793 67.8829 1.20179 64.7533C0.821333 60.3535 0.968607 55.8739 1.68657 51.5109C2.09157 49.0625 3.68704 47.602 6.15388 47.4425C14.481 46.8657 22.8633 46.9332 31.1721 47.2032C32.0496 47.2277 32.9332 47.3627 33.7984 47.5161C38.0694 48.2648 38.1737 52.4928 38.4498 56.0519C38.726 59.6478 38.6094 63.2622 38.0817 66.8336C37.6582 69.7913 36.8482 72.2704 33.4303 72.5098C29.147 72.8227 24.962 73.0743 20.6665 72.9945C20.6665 72.9761 20.642 72.9761 20.6297 72.9761ZM16.0949 65.4897C19.3226 63.6365 22.489 61.814 25.6984 59.9731C22.4645 58.1199 19.3042 56.2974 16.0949 54.4564V65.4897Z" fill="#FF0000"/>
<path d="M100.52 69.6125C100.373 70.2139 100.244 70.6864 100.115 71.1896H97.0959V47.9019H100.618V56.4928C100.802 56.2597 100.894 56.1615 100.974 56.0572C101.575 55.2287 102.355 54.6887 103.361 54.4801C104.963 54.1671 106.331 54.8728 106.816 56.4131C107.129 57.3703 107.331 58.3951 107.356 59.3954C107.405 61.9665 107.368 64.5315 107.276 67.1027C107.239 67.8882 107 68.692 106.699 69.4284C105.711 71.8584 102.484 72.2266 100.882 70.1218C100.784 69.993 100.692 69.8518 100.52 69.6125ZM100.692 63.2061V67.4648C100.692 68.1582 101.06 68.5816 101.753 68.7411C102.435 68.9007 102.987 68.6368 103.263 68.0048C103.38 67.7409 103.496 67.4648 103.502 67.1886C103.57 64.5868 103.631 61.9849 103.65 59.377C103.65 58.8922 103.533 58.389 103.386 57.9165C103.11 57.0635 102.349 56.8119 101.6 57.309C101.035 57.6894 100.692 58.2294 100.692 58.9474V63.2061ZM91.119 54.8115H94.807V71.2018H91.929C91.8247 70.5821 91.7204 69.9439 91.5977 69.1952C91.4013 69.4836 91.2847 69.6677 91.162 69.8518C90.2047 71.2325 88.8486 71.705 87.247 71.4534C85.8785 71.2325 85.0563 70.177 84.8722 68.4466C84.8169 67.9311 84.7924 67.4095 84.7924 66.8941C84.7801 63.0588 84.7924 59.2113 84.7924 55.376V54.7992H88.5233V55.4681C88.5233 59.1745 88.5111 62.8747 88.5356 66.5811C88.5356 67.1088 88.5908 67.655 88.6829 68.1827C88.7872 68.7227 89.1799 68.9191 89.7077 68.8823C90.5606 68.8148 91.1497 68.1827 91.1497 67.3359V55.5356C91.119 55.2962 91.119 55.0753 91.119 54.8115ZM65.7266 54.7992H69.433V55.4926C69.433 59.1806 69.4207 62.8624 69.4452 66.5382C69.4452 67.0659 69.4943 67.612 69.6048 68.1275C69.7459 68.735 70.1018 68.9314 70.7093 68.8516C71.55 68.735 72.0593 68.152 72.0655 67.2991V55.5601V54.8237H75.7535V71.2018H72.8878C72.7834 70.5943 72.6791 69.9684 72.5441 69.1768C72.36 69.453 72.2557 69.6125 72.1514 69.7782C71.1941 71.1834 69.8502 71.6989 68.2118 71.4473C66.8986 71.2509 66.0947 70.2814 65.8493 68.692C65.7818 68.195 65.7327 67.7041 65.7327 67.207C65.7204 63.2245 65.7204 59.2235 65.7204 55.241L65.7266 54.7992ZM63.8243 63.5497C63.812 64.102 63.7752 64.6543 63.7445 65.2066C63.6034 66.8634 63.5359 69.2136 62.1981 70.4225C61.3452 71.1834 60.2652 71.4596 59.1483 71.4964C58.6513 71.5087 58.1481 71.5087 57.651 71.4412C55.3008 71.0852 54.2085 70.0482 53.8158 67.4648C53.3678 64.4825 53.331 61.4511 53.8649 58.4688C54.4172 55.3821 56.3194 54.2899 59.2772 54.4924C62.0386 54.6887 63.272 56.499 63.5972 59.0763C63.7752 60.5551 63.8611 62.0524 63.8243 63.5497ZM60.0688 62.9852C60.0688 61.9358 60.0933 60.8804 60.0565 59.8311C60.032 59.2235 59.9522 58.6099 59.8233 58.0085C59.6761 57.3151 59.2342 56.9838 58.682 56.996C58.142 57.0083 57.7615 57.3397 57.5651 57.984C57.4976 58.2233 57.424 58.4688 57.424 58.7081C57.424 60.3526 57.4117 62.0033 57.3994 63.6479C57.3872 65.182 57.1908 66.7897 57.6756 68.2564C57.8229 68.7043 58.2033 68.9498 58.7004 68.9498C59.1851 68.9498 59.5042 68.7104 59.6822 68.2809C59.8233 67.9495 59.9461 67.5875 59.9461 67.2316C59.989 65.8202 60.0688 64.4027 60.0688 62.9852ZM48.4035 59.8986C48.7287 58.3092 49.0355 56.7567 49.373 55.1981C49.7964 53.216 50.2689 51.2339 50.6862 49.2457C50.7905 48.761 50.9869 48.6444 51.4471 48.6566C52.4351 48.6935 53.4415 48.6689 54.4969 48.6689C54.1533 49.933 53.8158 51.1357 53.4844 52.3201C52.4351 56.0387 51.3858 59.7697 50.3487 63.5006C50.2689 63.789 50.2321 64.102 50.2321 64.4088C50.2198 66.4461 50.2321 68.4773 50.2321 70.5146V71.1773H46.63C46.6178 70.9932 46.5932 70.8091 46.5932 70.625C46.5932 69.4714 46.5012 68.3116 46.6055 67.1702C46.8694 64.4272 45.998 61.9052 45.2923 59.3524C44.3596 55.9774 43.4146 52.5901 42.4818 49.215C42.4327 49.0555 42.4143 48.8837 42.3652 48.6873H46.0409C46.8141 52.4121 47.5935 56.1369 48.4035 59.8986ZM118.88 64.1756H112.67C112.738 65.4213 112.762 66.6057 112.891 67.7777C112.983 68.5939 113.431 68.9436 114.137 68.9498C114.873 68.962 115.303 68.5939 115.474 67.7838C115.53 67.52 115.567 67.2561 115.591 66.9861C115.616 66.7468 115.628 66.4891 115.646 66.1454C116.696 66.2007 117.72 66.262 118.733 66.305C119.322 68.0539 118.26 70.2998 116.475 70.9932C115.069 71.5455 113.627 71.5455 112.191 71.1221C111.13 70.8091 110.338 70.1341 109.982 69.097C109.651 68.1275 109.338 67.115 109.271 66.1025C109.086 63.6049 109.019 61.0829 109.399 58.5792C109.467 58.1619 109.584 57.7631 109.712 57.3581C110.228 55.689 111.351 54.6642 113.087 54.4924C114.032 54.4003 115.008 54.4371 115.941 54.5967C117.45 54.8606 118.254 55.9467 118.604 57.3703C118.764 58.0392 118.88 58.7265 118.905 59.4076C118.911 60.9724 118.88 62.5249 118.88 64.1756ZM115.352 62.0218C115.352 60.7883 115.364 59.6285 115.339 58.4626C115.339 58.1865 115.235 57.8981 115.131 57.6342C114.922 57.1188 114.486 56.9776 113.965 56.9776C113.443 56.9776 113.112 57.2415 112.983 57.714C112.59 59.1315 112.719 60.5797 112.731 62.034C113.67 62.0218 114.523 62.0218 115.352 62.0218Z" fill="#282828"/>
<path d="M78.6009 51.6758H74.9497V48.718H85.848V51.6574H82.2214V71.1773H78.607L78.6009 51.6758Z" fill="#282828"/>
</svg>
